<svg width="70"  viewBox="0 0 91 76" fill="none" xmlns="http://www.w3.org/2000/svg">
<path d="M82.7425 11.9352H41.6272L34.1516 0.721958H7.98735C3.86087 0.721958 0.511841 4.07099 0.511841 8.19747V68.0016C0.511841 72.1281 3.86087 75.4771 7.98735 75.4771H82.7425C86.869 75.4771 90.218 72.1281 90.218 68.0016V19.4107C90.218 15.2843 86.869 11.9352 82.7425 11.9352ZM60.3159 49.3128H49.1027V60.5261C49.1027 62.5818 47.4207 64.2638 45.3649 64.2638C43.3092 64.2638 41.6272 62.5818 41.6272 60.5261V49.3128H30.4139C28.3581 49.3128 26.6761 47.6308 26.6761 45.575C26.6761 43.5193 28.3581 41.8373 30.4139 41.8373H41.6272V30.624C41.6272 28.5682 43.3092 26.8863 45.3649 26.8863C47.4207 26.8863 49.1027 28.5682 49.1027 30.624V41.8373H60.3159C62.3717 41.8373 64.0537 43.5193 64.0537 45.575C64.0537 47.6308 62.3717 49.3128 60.3159 49.3128Z" fill="url(#paint0_linear)"/>
<defs>
<linearGradient id="paint0_linear" x1="45.3649" y1="0.721958" x2="45.3649" y2="75.4771" gradientUnits="userSpaceOnUse">
<stop stop-color="#7B7A89"/>
<stop offset="1" stop-color="#6E6D7A"/>
</linearGradient>
</defs>
</svg>
